HIERARCHY
ROOT Spine
{
    OFFSET 0.0 0.0 -0.0
    CHANNELS 6 Xposition Yposition Zposition Zrotation Xrotation Yrotation
    JOINT ShoulderCenter
    {
        OFFSET 0.0 31.07941436767578 0.0
        CHANNELS 3 Zrotation Xrotation Yrotation
        JOINT LeftShoulder
        {
            OFFSET 19.429794311523438 0.0 0.0
            CHANNELS 3 Zrotation Xrotation Yrotation
            JOINT LeftElbow
            {
                OFFSET 26.162879943847656 0.0 0.0
                CHANNELS 3 Zrotation Xrotation Yrotation
                JOINT LeftHand
                {
                    OFFSET 33.58753204345703 0.0 0.0
                    CHANNELS 3 Zrotation Xrotation Yrotation
                    End Site
                    {
                        OFFSET 13.435012817382812 0.0 0.0
                    }
                }
            }
        }
        JOINT RightShoulder
        {
            OFFSET -19.429794311523438 0.0 0.0
            CHANNELS 3 Zrotation Xrotation Yrotation
            JOINT RightElbow
            {
                OFFSET -26.162879943847656 0.0 0.0
                CHANNELS 3 Zrotation Xrotation Yrotation
                JOINT RightHand
                {
                    OFFSET -33.58753204345703 0.0 0.0
                    CHANNELS 3 Zrotation Xrotation Yrotation
                    End Site
                    {
                        OFFSET -13.435012817382812 0.0 0.0
                    }
                }
            }
        }
        End Site
        {
            OFFSET 0.0 12.43176555633545 0.0
        }
    }
    JOINT LeftHip
    {
        OFFSET 16.178823746781564 -16.178823746781564 0.0
        CHANNELS 3 Zrotation Xrotation Yrotation
        JOINT LeftKnee
        {
            OFFSET 0.0 -41.68095397949219 0.0
            CHANNELS 3 Zrotation Xrotation Yrotation
            JOINT LeftFoot
            {
                OFFSET 0.0 -46.998077392578125 0.0
                CHANNELS 3 Zrotation Xrotation Yrotation
                End Site
                {
                    OFFSET 0.0 0.0 18.799230575561523
                }
            }
        }
    }
    JOINT RightHip
    {
        OFFSET -16.178823746781564 -16.178823746781564 0.0
        CHANNELS 3 Zrotation Xrotation Yrotation
        JOINT RightKnee
        {
            OFFSET 0.0 -41.68095397949219 0.0
            CHANNELS 3 Zrotation Xrotation Yrotation
            JOINT RightFoot
            {
                OFFSET 0.0 -46.998077392578125 0.0
                CHANNELS 3 Zrotation Xrotation Yrotation
                End Site
                {
                    OFFSET 0.0 0.0 18.799230575561523
                }
            }
        }
    }
}
MOTION
Frames: 8
Frame Time: 0.03333333333333333
-3.5 16.0 31.5 -2.216794122121924 -2.5838610767334353 -3.6023623897432513 -4.021967338411616e-07 -1.670032672425035e-07 3.7797271654595415 90.08568909822664 5.254314500660991 166.02158590343484 -5.799157440104549e-07 -2.043497802484771e-08 41.677051278265346 -3.1805546814635168e-15 -1.5902773407317584e-15 -1.5902773407317584e-15 -93.75734125802862 11.194808703216056 -157.39358801756833 -1.3420617987972583e-06 -3.397750240303938e-06 -43.780171952554376 -7.951386703658792e-16 3.1805546814635168e-15 2.2069531490250793e-32 6.846650200575896 -0.6144940548514568 -23.914879632368518 1.0054825756602153 8.773463553518198 -27.62030708717703 -2.551789578560248e-32 -3.9756933518293955e-16 -7.35503270088438e-15 -19.853356197358963 3.125805183475993 76.19812813094407 -13.13834522789554 -3.3999936970032363 -122.86383052015188 -2.758691436281349e-33 7.951386703658792e-16 3.975693351829396e-16
-3.5 16.0 31.5 -2.216794541210191 -2.5838611178689437 -3.622411396018727 9.176442920018952e-08 -2.6136376219379086e-07 3.6505083364796596 90.14138475049252 5.626144056597441 166.01601173635635 7.719548595273572e-06 2.7103145609332473e-06 41.840818924894066 1.5902773407317588e-15 -1.5902773407317588e-15 2.2069531490250793e-32 -93.74189176582878 11.128693519012664 -157.61461023124667 -5.692916979998563e-07 -9.133517740697293e-07 -43.34575338727662 2.7829853462805768e-15 0.0 0.0 6.846863577171321 -0.6121038972770946 -23.89497221533923 1.0054825756602153 8.773463553518198 -27.62030708717703 -2.551789578560248e-32 -3.9756933518293955e-16 -7.35503270088438e-15 -19.854388229599717 3.118996143404281 77.37691252031537 -13.070836566591836 -3.208897745896637 -124.22068311883847 -1.5902773407317584e-15 -7.951386703658792e-16 -3.975693351829396e-16
-3.5 16.0 31.5 -2.4013191503546976 -2.583526067296833 -3.6107165621445465 -1.0537644446587253e-07 3.378326827319715e-08 3.6237639286191223 90.47190268770525 5.309813562186934 166.06323606469678 -2.489107906395274e-06 -3.5295816367069383e-07 42.01167672091088 -2.3854160110976376e-15 1.5902773407317584e-15 1.5902773407317584e-15 -93.46260467661192 10.895985931334074 -157.63355733735247 -3.1056562508035576e-07 -1.7303009431917053e-06 -43.321949359516246 -1.987846675914698e-15 0.0 0.0 6.892622364629148 -0.611892642008149 -23.338204071792035 1.218348834573598 8.825377395842095 -27.583442141267316 6.620859447075238e-32 7.951386703658792e-16 -9.54166404439055e-15 -19.669576700863683 3.136391096659769 77.36187446587883 -13.093123354337743 -3.103010085139303 -125.39407282043065 1.5902773407317582e-15 3.310429723537619e-32 2.385416011097637e-15
-3.4000000953674316 16.0 31.5 -2.216794122121924 -2.5838610767334353 -3.6023623897432513 -1.686271972225025e-07 -1.686078557471543e-07 3.623730695556536 90.33685776710989 5.626544865364858 166.22310365062526 1.121593450288942e-06 6.186790648274957e-07 41.6323334193843 0.0 -3.1805546814635168e-15 0.0 -93.65137473441675 10.793755549201949 -157.42369014911372 -3.3840330573374665e-06 3.7328573794894618e-06 -43.684946477455824 2.782985346280577e-15 7.951386703658792e-16 -1.9310840053969444e-32 6.846650200575896 -0.6144940548514568 -23.914879632368518 0.8901851704670487 8.716649860744951 -27.294174359166405 -7.951386703658794e-16 7.951386703658794e-16 3.13085851456565e-15 -19.726960232920803 3.1369037039969228 75.57345908711332 -13.033710472506492 -3.3878370428338602 -121.17890854390419 6.620859447075238e-32 3.1805546814635176e-15 -2.3854160110976384e-15
-3.4000000953674316 16.0 31.5 -2.2167944892257028 -2.768142194752 -3.295137006030386 8.13075474669719e-08 1.5326017459330962e-10 3.3183678047166802 90.34898252539988 5.599198823627031 166.0385402587141 -2.123646901567486e-06 1.6950198094192125e-06 41.777937000209526 -7.951386703658792e-16 -1.5902773407317584e-15 -1.1034765745125397e-32 -93.82062613991219 10.527522923813425 -157.25844048590992 -1.5419851564250245e-07 -1.4064576536152225e-06 -43.483580277366634 1.1927080055488194e-15 7.951386703658796e-16 -1.5902773407317592e-15 6.832475149146639 -0.4684423811904476 -24.241839300907436 0.8307614450267352 8.83127470577512 -27.507964543824205 1.0000256456519891e-32 -3.975693351829396e-16 2.882377680076312e-15 -19.86114318668824 3.539056099184103 77.70188598859622 -13.232553672133076 -3.1171279010581334 -122.38831623950297 -1.5902773407317582e-15 -7.951386703658792e-16 6.758678698109972e-15
-3.4000000953674316 16.0 31.5 -2.2167944892257028 -2.768142194752 -3.295137006030386 -1.993165476216335e-08 1.538243571671982e-07 3.3180280832220466 90.34898207464168 5.599533753177347 166.0385385004468 -2.087185628602449e-06 1.7150485184522511e-06 41.77793726685331 1.5902773407317584e-15 1.5902773407317584e-15 1.5902773407317584e-15 -93.80251459145398 10.484712247618623 -157.26176514919297 3.46269450918139e-06 -5.925728959546241e-07 -43.63812822064442 9.144094709207609e-15 3.1805546814635164e-15 -2.537996121378841e-31 6.832475149146639 -0.4684423811904476 -24.241839300907436 0.8307614450267352 8.83127470577512 -27.507964543824205 1.0000256456519891e-32 -3.975693351829396e-16 2.882377680076312e-15 -19.86114318668824 3.539056099184103 77.70188598859622 -13.178232638675755 -3.260170663940801 -120.5337424678034 -3.1805546814635168e-15 -7.951386703658792e-16 3.975693351829396e-16
-3.4000000953674316 16.0 31.60000228881836 -2.216794396805396 -2.9523735208273996 -3.6028688687727075 -4.371857556628249e-08 2.551446979007931e-07 3.627282021459003 90.36711499051542 5.596860329262884 165.85343761411508 -2.087185628602449e-06 1.7150485184522511e-06 41.77793726685331 1.5902773407317584e-15 1.5902773407317584e-15 1.5902773407317584e-15 -93.83645832656309 10.473958815888523 -157.07472205093288 3.46269450918139e-06 -5.925728959546241e-07 -43.63812822064442 9.144094709207609e-15 3.1805546814635164e-15 -2.537996121378841e-31 6.677346569880608 -0.11951238651668447 -23.768460646623044 1.1049165685472637 8.653681979868953 -26.86574802993661 0.0 0.0 7.454425034680116e-16 -19.894201273902187 3.607364125110689 77.68783348163964 -13.26748319771992 -3.3758914651054384 -123.67073462653262 0.0 0.0 -1.1927080055488186e-15
-3.4000000953674316 16.0 31.60000228881836 -2.216794673695916 -2.768149251394352 -3.6026342127945226 3.77323993029384e-07 4.385358978714283e-08 3.476259171460082 90.41051663117574 5.994554292273295 166.03133146882698 -1.3585757244657337e-06 -2.5466533845763513e-06 41.79577366555999 -7.951386703658792e-16 -2.2069531490250793e-32 3.1805546814635168e-15 -93.85535822847211 10.574293176329322 -157.47071713897105 4.783757101677427e-06 -3.2031452775064216e-06 -43.60585908330281 5.9635400277440935e-15 8.276074308844047e-32 1.5902773407317584e-15 6.834875107516267 -0.4318468237732042 -23.55580337610932 0.7741244588737958 8.769469122194279 -26.956930798179112 5.000128228259945e-32 -7.951386703658791e-16 7.20594420019078e-15 -19.868461596315516 3.29869517507032 77.42084398329656 -13.180650408899359 -3.2415835190678006 -125.26896951624745 3.180554681463516e-15 7.951386703658792e-16 6.758678698109972e-15
